<?xml version="1.0" encoding="UTF-8"?>
<svg width="1302px" height="493px" viewBox="0 0 1302 493" version="1.1" xmlns="http://www.w3.org/2000/svg" xmlns:xlink="http://www.w3.org/1999/xlink">
    <!-- Generator: Sketch 46.2 (44496) - http://www.bohemiancoding.com/sketch -->
    <title>wave-hero-background</title>
    <desc>Created with Sketch.</desc>
    <defs>
        <linearGradient x1="50%" y1="-18.1477482%" x2="50%" y2="100%" id="linearGradient-1">
            <stop stop-color="#F5515F" offset="0%"></stop>
            <stop stop-color="#9F041B" offset="100%"></stop>
        </linearGradient>
    </defs>
    <g id="Page-1" stroke="none" stroke-width="1" fill="none" fill-rule="evenodd">
        <g id="wave-hero-background" fill-rule="nonzero">
            <path d="M0,-3.04039899e-23 L1300,-2.84217094e-14 C1299.84369,99.0658466 1299.84369,259.045733 1300,479.93966 C939.379367,522.288692 978.893507,439.694844 650,450.952014 C321.106493,462.209185 306.589562,511.200484 0,450.952014 C1,327.508342 1,177.191004 0,-3.04039899e-23 Z" id="Wave" fill="#C4C4C4" opacity="0.15"></path>
            <path d="M1.000768,0 L925.701254,0 L1302,0 C1302,223.960943 1302,366.849893 1302,428.66685 C1221.6052,416.744841 1147.81368,399.334739 958.281773,416.744841 C768.749862,434.154944 701.824307,503.789515 426.321988,437.77475 C242.653775,393.764907 100.880035,397.003272 1.000768,447.489845 L1.000768,0 Z" id="Wave" fill="url(#linearGradient-1)" transform="translate(651.500384, 232.828869) scale(-1, 1) translate(-651.500384, -232.828869) "></path>
        </g>
    </g>
</svg>